<svg width="300" height="91" viewBox="0 0 300 91" fill="none" xmlns="http://www.w3.org/2000/svg">
<path d="M128.43 59.3141V32.9141H137.11L144.47 52.7941H144.67L151.87 32.9141H160.15V59.3141H154.67L155.03 38.7541H154.59L146.59 59.3141H141.79L133.91 38.7541H133.47L133.83 59.3141H128.43ZM175.248 59.8741C173.142 59.8741 171.288 59.4608 169.688 58.6341C168.088 57.7808 166.835 56.5408 165.928 54.9141C165.022 53.2608 164.568 51.2075 164.568 48.7541C164.568 46.3008 165.022 44.2608 165.928 42.6341C166.862 41.0075 168.128 39.7941 169.728 38.9941C171.355 38.1675 173.195 37.7541 175.248 37.7541C177.355 37.7541 179.208 38.1675 180.808 38.9941C182.435 39.8208 183.702 41.0608 184.608 42.7141C185.542 44.3408 186.008 46.3808 186.008 48.8341C186.008 51.3141 185.528 53.3808 184.568 55.0341C183.635 56.6608 182.355 57.8741 180.728 58.6741C179.128 59.4741 177.302 59.8741 175.248 59.8741ZM175.448 55.5941C176.488 55.5941 177.355 55.3541 178.048 54.8741C178.768 54.3941 179.302 53.6741 179.648 52.7141C180.022 51.7275 180.208 50.5408 180.208 49.1541C180.208 47.6875 180.008 46.4475 179.608 45.4341C179.235 44.3941 178.675 43.6075 177.928 43.0741C177.182 42.5141 176.235 42.2341 175.088 42.2341C174.102 42.2341 173.248 42.4741 172.528 42.9541C171.808 43.4075 171.262 44.1275 170.888 45.1141C170.515 46.0741 170.328 47.2608 170.328 48.6741C170.328 50.9408 170.782 52.6608 171.688 53.8341C172.595 55.0075 173.848 55.5941 175.448 55.5941ZM198.699 59.8741C197.285 59.8741 196.005 59.7408 194.859 59.4741C193.712 59.2075 192.725 58.8208 191.899 58.3141C191.072 57.8075 190.405 57.2075 189.899 56.5141C189.392 55.7941 189.059 54.9941 188.899 54.1141L193.299 52.3141C193.405 52.9008 193.699 53.4475 194.179 53.9541C194.659 54.4608 195.299 54.8741 196.099 55.1941C196.925 55.4875 197.912 55.6341 199.059 55.6341C200.285 55.6341 201.232 55.4608 201.899 55.1141C202.565 54.7408 202.899 54.2208 202.899 53.5541C202.899 53.0475 202.712 52.6475 202.339 52.3541C201.965 52.0608 201.419 51.8075 200.699 51.5941C199.979 51.3808 199.112 51.1808 198.099 50.9941C197.112 50.7541 196.099 50.5008 195.059 50.2341C194.045 49.9675 193.099 49.5941 192.219 49.1141C191.365 48.6341 190.659 48.0075 190.099 47.2341C189.565 46.4341 189.299 45.4208 189.299 44.1941C189.299 42.9141 189.645 41.7941 190.339 40.8341C191.032 39.8741 192.045 39.1275 193.379 38.5941C194.712 38.0341 196.339 37.7541 198.259 37.7541C199.992 37.7541 201.512 37.9941 202.819 38.4741C204.125 38.9275 205.192 39.5941 206.019 40.4741C206.872 41.3275 207.445 42.3541 207.739 43.5541L203.059 45.1141C202.952 44.4741 202.685 43.9141 202.259 43.4341C201.859 42.9541 201.312 42.5941 200.619 42.3541C199.952 42.1141 199.165 41.9941 198.259 41.9941C197.112 41.9941 196.219 42.1808 195.579 42.5541C194.965 42.9275 194.659 43.4208 194.659 44.0341C194.659 44.5408 194.859 44.9541 195.259 45.2741C195.685 45.5941 196.272 45.8608 197.019 46.0741C197.765 46.2608 198.645 46.4608 199.659 46.6741C200.725 46.8875 201.765 47.1408 202.779 47.4341C203.792 47.7008 204.699 48.0608 205.499 48.5141C206.325 48.9675 206.979 49.5675 207.459 50.3141C207.939 51.0608 208.179 52.0208 208.179 53.1941C208.179 54.5808 207.805 55.7808 207.059 56.7941C206.312 57.7808 205.232 58.5408 203.819 59.0741C202.405 59.6075 200.699 59.8741 198.699 59.8741ZM217.055 59.8741C215.881 59.8741 214.841 59.6475 213.935 59.1941C213.028 58.7141 212.321 58.0341 211.815 57.1541C211.308 56.2741 211.055 55.1808 211.055 53.8741C211.055 52.7275 211.268 51.7675 211.695 50.9941C212.148 50.2208 212.801 49.5941 213.655 49.1141C214.508 48.6341 215.561 48.2341 216.815 47.9141C218.068 47.5941 219.495 47.3141 221.095 47.0741C221.948 46.9408 222.641 46.8208 223.175 46.7141C223.735 46.5808 224.148 46.3808 224.415 46.1141C224.681 45.8208 224.815 45.4075 224.815 44.8741C224.815 44.1275 224.548 43.4875 224.015 42.9541C223.481 42.4208 222.641 42.1541 221.495 42.1541C220.721 42.1541 220.001 42.2875 219.335 42.5541C218.695 42.8208 218.135 43.2208 217.655 43.7541C217.201 44.2875 216.868 44.9675 216.655 45.7941L211.575 44.2341C211.895 43.1408 212.348 42.1941 212.935 41.3941C213.548 40.5941 214.281 39.9275 215.135 39.3941C215.988 38.8341 216.961 38.4208 218.055 38.1541C219.148 37.8875 220.335 37.7541 221.615 37.7541C223.668 37.7541 225.335 38.0875 226.615 38.7541C227.921 39.3941 228.895 40.4075 229.535 41.7941C230.175 43.1541 230.495 44.9141 230.495 47.0741V50.6741C230.495 51.6075 230.508 52.5541 230.535 53.5141C230.588 54.4741 230.641 55.4475 230.695 56.4341C230.775 57.3941 230.855 58.3541 230.935 59.3141H225.855C225.748 58.6475 225.641 57.8875 225.535 57.0341C225.455 56.1541 225.388 55.2741 225.335 54.3941H224.615C224.241 55.4075 223.708 56.3275 223.015 57.1541C222.321 57.9808 221.468 58.6475 220.455 59.1541C219.468 59.6341 218.335 59.8741 217.055 59.8741ZM219.495 55.7141C220.001 55.7141 220.508 55.6208 221.015 55.4341C221.548 55.2475 222.055 54.9941 222.535 54.6741C223.041 54.3275 223.495 53.9008 223.895 53.3941C224.321 52.8875 224.668 52.3141 224.935 51.6741L224.855 48.3141L225.775 48.5141C225.295 48.8608 224.735 49.1408 224.095 49.3541C223.455 49.5408 222.788 49.6875 222.095 49.7941C221.428 49.9008 220.761 50.0208 220.095 50.1541C219.428 50.2875 218.828 50.4608 218.295 50.6741C217.788 50.8875 217.375 51.1808 217.055 51.5541C216.761 51.9008 216.615 52.3941 216.615 53.0341C216.615 53.8608 216.881 54.5141 217.415 54.9941C217.948 55.4741 218.641 55.7141 219.495 55.7141ZM235.533 59.3141V38.3141H241.293V59.3141H235.533ZM238.453 35.1541C237.333 35.1541 236.466 34.9275 235.853 34.4741C235.266 33.9941 234.973 33.3008 234.973 32.3941C234.973 31.4608 235.266 30.7541 235.853 30.2741C236.466 29.7941 237.333 29.5541 238.453 29.5541C239.6 29.5541 240.466 29.7941 241.053 30.2741C241.666 30.7541 241.973 31.4608 241.973 32.3941C241.973 33.2741 241.666 33.9541 241.053 34.4341C240.466 34.9141 239.6 35.1541 238.453 35.1541ZM256.347 59.8741C254.533 59.8741 252.947 59.6075 251.587 59.0741C250.227 58.5408 249.093 57.7941 248.187 56.8341C247.28 55.8741 246.6 54.7408 246.147 53.4341C245.693 52.1008 245.467 50.6475 245.467 49.0741C245.467 47.4208 245.693 45.9141 246.147 44.5541C246.627 43.1675 247.32 41.9675 248.227 40.9541C249.133 39.9408 250.253 39.1541 251.587 38.5941C252.92 38.0341 254.44 37.7541 256.147 37.7541C257.853 37.7541 259.333 38.0341 260.587 38.5941C261.867 39.1541 262.893 39.9408 263.667 40.9541C264.467 41.9408 265.013 43.1141 265.307 44.4741L259.987 46.1941C259.907 45.3675 259.68 44.6608 259.307 44.0741C258.96 43.4608 258.48 43.0075 257.867 42.7141C257.28 42.3941 256.613 42.2341 255.867 42.2341C255.093 42.2341 254.427 42.3941 253.867 42.7141C253.307 43.0075 252.827 43.4475 252.427 44.0341C252.053 44.5941 251.76 45.2875 251.547 46.1141C251.36 46.9141 251.267 47.8208 251.267 48.8341C251.267 50.2741 251.453 51.5008 251.827 52.5141C252.227 53.5008 252.8 54.2608 253.547 54.7941C254.32 55.3008 255.267 55.5541 256.387 55.5541C257.453 55.5541 258.307 55.3541 258.947 54.9541C259.587 54.5275 260.053 53.9941 260.347 53.3541C260.667 52.6875 260.867 52.0075 260.947 51.3141L265.987 52.4341C265.853 53.4741 265.56 54.4475 265.107 55.3541C264.68 56.2608 264.067 57.0475 263.267 57.7141C262.467 58.3808 261.493 58.9141 260.347 59.3141C259.227 59.6875 257.893 59.8741 256.347 59.8741Z" fill="#3A6DF0"/>
<path d="M9.18376 1.89295e-06L94.898 1.89295e-06C96.862 -0.00125904 98.7747 0.62746 100.355 1.79386C101.936 2.96026 103.101 4.60291 103.68 6.48065C104.259 8.3584 104.22 10.3723 103.571 12.2268C102.922 14.0813 101.695 15.6786 100.072 16.7843L52.0409 49.6178L7.62939e-05 13.2314V9.18849C7.62939e-05 6.75155 0.967644 4.41442 2.68992 2.69125C4.41219 0.968072 6.7481 1.89295e-06 9.18376 1.89295e-06Z" fill="url(#paint0_linear_8_5)"/>
<path d="M104.082 9.37252L104.082 86.4333C104.076 87.3213 103.814 88.1888 103.326 88.9307C102.838 89.6726 102.146 90.2572 101.333 90.6136C100.52 90.9701 99.6212 91.0832 98.7454 90.9392C97.8695 90.7952 97.0541 90.4004 96.3979 89.8024L52.0408 49.4649L101.265 2.57304C102.174 3.44746 102.893 4.4997 103.377 5.66424C103.862 6.82877 104.102 8.08065 104.082 9.34189V9.37252Z" fill="url(#paint1_linear_8_5)"/>
<path d="M0 8.82084L0 86.3717C-0.000587463 87.2623 0.257591 88.1339 0.743107 88.8804C1.22863 89.627 1.92056 90.2162 2.73468 90.5764C3.54881 90.9366 4.45004 91.0523 5.32869 90.9094C6.20734 90.7665 7.02552 90.3711 7.68367 89.7714L52.0408 49.3421L5.11224 6.55435C4.67313 6.15783 4.12862 5.89709 3.54454 5.80365C2.96046 5.71021 2.36184 5.78808 1.82105 6.02784C1.28026 6.26759 0.82048 6.65897 0.497307 7.15464C0.174129 7.6503 0.00139618 8.22903 0 8.82084Z" fill="#3A6DF0"/>
<defs>
<linearGradient id="paint0_linear_8_5" x1="7.62939e-05" y1="24.8089" x2="76.5613" y2="24.8089" gradientUnits="userSpaceOnUse">
<stop stop-color="#2660FF"/>
<stop offset="1" stop-color="#EFE259"/>
</linearGradient>
<linearGradient id="paint1_linear_8_5" x1="90.551" y1="46.8003" x2="56.7244" y2="46.8003" gradientUnits="userSpaceOnUse">
<stop stop-color="#F9F913"/>
<stop offset="1" stop-color="#F7E843"/>
</linearGradient>
</defs>
</svg>
