<svg width="477" height="91" viewBox="0 0 477 91" fill="none" xmlns="http://www.w3.org/2000/svg">
<path d="M132.81 79V13H154.51L172.91 62.7H173.41L191.41 13H212.11V79H198.41L199.31 27.6H198.21L178.21 79H166.21L146.51 27.6H145.41L146.31 79H132.81ZM249.856 80.4C244.589 80.4 239.956 79.3667 235.956 77.3C231.956 75.1667 228.822 72.0667 226.556 68C224.289 63.8667 223.156 58.7333 223.156 52.6C223.156 46.4667 224.289 41.3667 226.556 37.3C228.889 33.2333 232.056 30.2 236.056 28.2C240.122 26.1333 244.722 25.1 249.856 25.1C255.122 25.1 259.756 26.1333 263.756 28.2C267.822 30.2667 270.989 33.3667 273.256 37.5C275.589 41.5667 276.756 46.6667 276.756 52.8C276.756 59 275.556 64.1667 273.156 68.3C270.822 72.3667 267.622 75.4 263.556 77.4C259.556 79.4 254.989 80.4 249.856 80.4ZM250.356 69.7C252.956 69.7 255.122 69.1 256.856 67.9C258.656 66.7 259.989 64.9 260.856 62.5C261.789 60.0333 262.256 57.0667 262.256 53.6C262.256 49.9333 261.756 46.8333 260.756 44.3C259.822 41.7 258.422 39.7333 256.556 38.4C254.689 37 252.322 36.3 249.456 36.3C246.989 36.3 244.856 36.9 243.056 38.1C241.256 39.2333 239.889 41.0333 238.956 43.5C238.022 45.9 237.556 48.8667 237.556 52.4C237.556 58.0667 238.689 62.3667 240.956 65.3C243.222 68.2333 246.356 69.7 250.356 69.7ZM308.481 80.4C304.948 80.4 301.748 80.0667 298.881 79.4C296.015 78.7333 293.548 77.7667 291.481 76.5C289.415 75.2333 287.748 73.7333 286.481 72C285.215 70.2 284.381 68.2 283.981 66L294.981 61.5C295.248 62.9667 295.981 64.3333 297.181 65.6C298.381 66.8667 299.981 67.9 301.981 68.7C304.048 69.4333 306.515 69.8 309.381 69.8C312.448 69.8 314.815 69.3667 316.481 68.5C318.148 67.5667 318.981 66.2667 318.981 64.6C318.981 63.3333 318.515 62.3333 317.581 61.6C316.648 60.8667 315.281 60.2333 313.481 59.7C311.681 59.1667 309.515 58.6667 306.981 58.2C304.515 57.6 301.981 56.9667 299.381 56.3C296.848 55.6333 294.481 54.7 292.281 53.5C290.148 52.3 288.381 50.7333 286.981 48.8C285.648 46.8 284.981 44.2667 284.981 41.2C284.981 38 285.848 35.2 287.581 32.8C289.315 30.4 291.848 28.5333 295.181 27.2C298.515 25.8 302.581 25.1 307.381 25.1C311.715 25.1 315.515 25.7 318.781 26.9C322.048 28.0333 324.715 29.7 326.781 31.9C328.915 34.0333 330.348 36.6 331.081 39.6L319.381 43.5C319.115 41.9 318.448 40.5 317.381 39.3C316.381 38.1 315.015 37.2 313.281 36.6C311.615 36 309.648 35.7 307.381 35.7C304.515 35.7 302.281 36.1667 300.681 37.1C299.148 38.0333 298.381 39.2667 298.381 40.8C298.381 42.0667 298.881 43.1 299.881 43.9C300.948 44.7 302.415 45.3667 304.281 45.9C306.148 46.3667 308.348 46.8667 310.881 47.4C313.548 47.9333 316.148 48.5667 318.681 49.3C321.215 49.9667 323.481 50.8667 325.481 52C327.548 53.1333 329.181 54.6333 330.381 56.5C331.581 58.3667 332.181 60.7667 332.181 63.7C332.181 67.1667 331.248 70.1667 329.381 72.7C327.515 75.1667 324.815 77.0667 321.281 78.4C317.748 79.7333 313.481 80.4 308.481 80.4ZM354.371 80.4C351.438 80.4 348.838 79.8333 346.571 78.7C344.304 77.5 342.538 75.8 341.271 73.6C340.004 71.4 339.371 68.6667 339.371 65.4C339.371 62.5333 339.904 60.1333 340.971 58.2C342.104 56.2667 343.738 54.7 345.871 53.5C348.004 52.3 350.638 51.3 353.771 50.5C356.904 49.7 360.471 49 364.471 48.4C366.604 48.0667 368.338 47.7667 369.671 47.5C371.071 47.1667 372.104 46.6667 372.771 46C373.438 45.2667 373.771 44.2333 373.771 42.9C373.771 41.0333 373.104 39.4333 371.771 38.1C370.438 36.7667 368.338 36.1 365.471 36.1C363.538 36.1 361.738 36.4333 360.071 37.1C358.471 37.7667 357.071 38.7667 355.871 40.1C354.738 41.4333 353.904 43.1333 353.371 45.2L340.671 41.3C341.471 38.5667 342.604 36.2 344.071 34.2C345.604 32.2 347.438 30.5333 349.571 29.2C351.704 27.8 354.138 26.7667 356.871 26.1C359.604 25.4333 362.571 25.1 365.771 25.1C370.904 25.1 375.071 25.9333 378.271 27.6C381.538 29.2 383.971 31.7333 385.571 35.2C387.171 38.6 387.971 43 387.971 48.4V57.4C387.971 59.7333 388.004 62.1 388.071 64.5C388.204 66.9 388.338 69.3333 388.471 71.8C388.671 74.2 388.871 76.6 389.071 79H376.371C376.104 77.3333 375.838 75.4333 375.571 73.3C375.371 71.1 375.204 68.9 375.071 66.7H373.271C372.338 69.2333 371.004 71.5333 369.271 73.6C367.538 75.6667 365.404 77.3333 362.871 78.6C360.404 79.8 357.571 80.4 354.371 80.4ZM360.471 70C361.738 70 363.004 69.7667 364.271 69.3C365.604 68.8333 366.871 68.2 368.071 67.4C369.338 66.5333 370.471 65.4667 371.471 64.2C372.538 62.9333 373.404 61.5 374.071 59.9L373.871 51.5L376.171 52C374.971 52.8667 373.571 53.5667 371.971 54.1C370.371 54.5667 368.704 54.9333 366.971 55.2C365.304 55.4667 363.638 55.7667 361.971 56.1C360.304 56.4333 358.804 56.8667 357.471 57.4C356.204 57.9333 355.171 58.6667 354.371 59.6C353.638 60.4667 353.271 61.7 353.271 63.3C353.271 65.3667 353.938 67 355.271 68.2C356.604 69.4 358.338 70 360.471 70ZM400.567 79V26.5H414.967V79H400.567ZM407.867 18.6C405.067 18.6 402.901 18.0333 401.367 16.9C399.901 15.7 399.167 13.9667 399.167 11.7C399.167 9.36667 399.901 7.6 401.367 6.4C402.901 5.2 405.067 4.6 407.867 4.6C410.734 4.6 412.901 5.2 414.367 6.4C415.901 7.6 416.667 9.36667 416.667 11.7C416.667 13.9 415.901 15.6 414.367 16.8C412.901 18 410.734 18.6 407.867 18.6ZM452.602 80.4C448.068 80.4 444.102 79.7333 440.702 78.4C437.302 77.0667 434.468 75.2 432.202 72.8C429.935 70.4 428.235 67.5667 427.102 64.3C425.968 60.9667 425.402 57.3333 425.402 53.4C425.402 49.2667 425.968 45.5 427.102 42.1C428.302 38.6333 430.035 35.6333 432.302 33.1C434.568 30.5667 437.368 28.6 440.702 27.2C444.035 25.8 447.835 25.1 452.102 25.1C456.368 25.1 460.068 25.8 463.202 27.2C466.402 28.6 468.968 30.5667 470.902 33.1C472.902 35.5667 474.268 38.5 475.002 41.9L461.702 46.2C461.502 44.1333 460.935 42.3667 460.002 40.9C459.135 39.3667 457.935 38.2333 456.402 37.5C454.935 36.7 453.268 36.3 451.402 36.3C449.468 36.3 447.802 36.7 446.402 37.5C445.002 38.2333 443.802 39.3333 442.802 40.8C441.868 42.2 441.135 43.9333 440.602 46C440.135 48 439.902 50.2667 439.902 52.8C439.902 56.4 440.368 59.4667 441.302 62C442.302 64.4667 443.735 66.3667 445.602 67.7C447.535 68.9667 449.902 69.6 452.702 69.6C455.368 69.6 457.502 69.1 459.102 68.1C460.702 67.0333 461.868 65.7 462.602 64.1C463.402 62.4333 463.902 60.7333 464.102 59L476.702 61.8C476.368 64.4 475.635 66.8333 474.502 69.1C473.435 71.3667 471.902 73.3333 469.902 75C467.902 76.6667 465.468 78 462.602 79C459.802 79.9333 456.468 80.4 452.602 80.4Z" fill="#3A6DF0"/>
<path d="M9.18376 1.89295e-06L94.898 1.89295e-06C96.862 -0.00125904 98.7747 0.62746 100.355 1.79386C101.936 2.96026 103.101 4.60291 103.68 6.48065C104.259 8.3584 104.22 10.3723 103.571 12.2268C102.922 14.0813 101.695 15.6786 100.072 16.7843L52.0409 49.6178L7.62939e-05 13.2314V9.18849C7.62939e-05 6.75155 0.967644 4.41442 2.68992 2.69125C4.41219 0.968072 6.7481 1.89295e-06 9.18376 1.89295e-06Z" fill="url(#paint0_linear_8_5)"/>
<path d="M104.082 9.37252L104.082 86.4333C104.076 87.3213 103.814 88.1888 103.326 88.9307C102.838 89.6726 102.146 90.2572 101.333 90.6136C100.52 90.9701 99.6212 91.0832 98.7454 90.9392C97.8695 90.7952 97.0541 90.4004 96.3979 89.8024L52.0408 49.4649L101.265 2.57304C102.174 3.44746 102.893 4.4997 103.377 5.66424C103.862 6.82877 104.102 8.08065 104.082 9.34189V9.37252Z" fill="url(#paint1_linear_8_5)"/>
<path d="M0 8.82084L0 86.3717C-0.000587463 87.2623 0.257591 88.1339 0.743107 88.8804C1.22863 89.627 1.92056 90.2162 2.73468 90.5764C3.54881 90.9366 4.45004 91.0523 5.32869 90.9094C6.20734 90.7665 7.02552 90.3711 7.68367 89.7714L52.0408 49.3421L5.11224 6.55435C4.67313 6.15783 4.12862 5.89709 3.54454 5.80365C2.96046 5.71021 2.36184 5.78808 1.82105 6.02784C1.28026 6.26759 0.82048 6.65897 0.497307 7.15464C0.174129 7.6503 0.00139618 8.22903 0 8.82084Z" fill="#3A6DF0"/>
<defs>
<linearGradient id="paint0_linear_8_5" x1="7.62939e-05" y1="24.8089" x2="76.5613" y2="24.8089" gradientUnits="userSpaceOnUse">
<stop stop-color="#2660FF"/>
<stop offset="1" stop-color="#EFE259"/>
</linearGradient>
<linearGradient id="paint1_linear_8_5" x1="90.551" y1="46.8003" x2="56.7244" y2="46.8003" gradientUnits="userSpaceOnUse">
<stop stop-color="#F9F913"/>
<stop offset="1" stop-color="#F7E843"/>
</linearGradient>
</defs>
</svg>
